HIERARCHY
ROOT Hips
{
	OFFSET 0.000000 0.000000 0.000000
	CHANNELS 6 Xposition Yposition Zposition Zrotation Yrotation Xrotation 
	JOINT LHipJoint
	{
		OFFSET 0.000000 0.000000 0.000000
		CHANNELS 3 Zrotation Yrotation Xrotation
		JOINT LeftUpLeg
		{
			OFFSET 1.363060 -1.794630 0.839290
			CHANNELS 3 Zrotation Yrotation Xrotation
			JOINT LeftLeg
			{
				OFFSET 2.448110 -6.726130 0.000000
				CHANNELS 3 Zrotation Yrotation Xrotation
				JOINT LeftFoot
				{
					OFFSET 2.562200 -7.039590 0.000000
					CHANNELS 3 Zrotation Yrotation Xrotation
					JOINT LeftToeBase
					{
						OFFSET 0.157640 -0.433110 2.322550
						CHANNELS 3 Zrotation Yrotation Xrotation
						End Site
						{
							OFFSET 0.000000 0.000000 0.000000
						}
					}
				}
			}
		}
	}
	JOINT RHipJoint
	{
		OFFSET 0.000000 0.000000 0.000000
		CHANNELS 3 Zrotation Yrotation Xrotation
		JOINT RightUpLeg
		{
			OFFSET -1.305520 -1.794630 0.839290
			CHANNELS 3 Zrotation Yrotation Xrotation
			JOINT RightLeg
			{
				OFFSET -2.542530 -6.985550 0.000000
				CHANNELS 3 Zrotation Yrotation Xrotation
				JOINT RightFoot
				{
					OFFSET -2.568260 -7.056230 0.000000
					CHANNELS 3 Zrotation Yrotation Xrotation
					JOINT RightToeBase
					{
						OFFSET -0.164730 -0.452590 2.363150
						CHANNELS 3 Zrotation Yrotation Xrotation
						End Site
						{
							OFFSET 0.000000 0.000000 0.000000
						}
					}
				}
			}
		}
	}
}
MOTION
Frames: 19
Frame Time: 0.008333
1.133930 17.058162 0.514363 154.926605 -78.429788 -139.802210 -9.234817 3.044173 1.522300 -15.135692 18.321588 -21.735118 -2.839331 -1.141309 11.772445 2.544829 16.547003 -5.434548 0.906200 0.000000 -45.422300 11.331649 -1.865951 5.955844 -2.547302 1.034227 -28.123374 0.674669 -0.635260 23.767768 -2.740435 -10.408156 -10.250073 -0.269200 0.000000 -61.281900
1.099530 17.070708 0.505827 157.922035 -77.080371 -142.402183 -9.403577 3.138993 1.513087 -15.527150 19.634460 -22.238618 -2.944942 -1.181964 11.300391 2.507587 16.503201 -5.093827 1.006600 0.000000 -45.753200 11.130317 -2.053903 6.463161 -2.675021 2.119280 -28.631805 0.680459 -0.517127 22.889461 -2.643652 -9.986009 -9.728639 -0.385700 0.000000 -61.452100
1.064935 17.085311 0.497631 160.523756 -75.678578 -144.583292 -9.567262 3.246792 1.509085 -15.949959 20.983694 -22.776791 -3.063783 -1.222291 10.763684 2.458085 16.408755 -4.683883 1.124100 -0.000000 -46.129400 10.927856 -2.246693 6.981715 -2.810099 3.201096 -29.117788 0.694400 -0.383094 21.850198 -2.531751 -9.533109 -9.099142 -0.515601 -0.000000 -61.672900
1.030686 17.101644 0.489645 162.772904 -74.251065 -146.387145 -9.725181 3.363535 1.513842 -16.399896 22.326038 -23.350067 -3.191666 -1.261517 10.183904 2.399764 16.277952 -4.212467 1.256700 0.000000 -46.545700 10.725295 -2.443720 7.504929 -2.954886 4.264784 -29.575868 0.718079 -0.235365 20.657995 -2.404616 -9.054041 -8.360689 -0.655900 -0.000000 -61.949600
0.997789 17.119415 0.481841 164.701300 -72.822476 -147.857502 -9.876323 3.485250 1.528808 -16.870033 23.618675 -23.943275 -3.323273 -1.298854 9.577472 2.336694 16.130363 -3.686809 1.402800 0.000000 -46.994100 10.525401 -2.642161 8.021057 -3.113305 5.284992 -29.994912 0.753533 -0.077360 19.329519 -2.260099 -8.542935 -7.517214 -0.801099 0.000000 -62.284300
0.966953 17.138249 0.474350 166.351004 -71.413539 -149.043653 -10.020874 3.608584 1.556025 -17.350929 24.822517 -24.542163 -3.453299 -1.333894 8.959312 2.273399 15.986824 -3.117773 1.560900 0.000000 -47.463500 10.330228 -2.839031 8.519594 -3.286258 6.239744 -30.368546 0.802605 0.087722 17.886486 -2.096644 -7.994150 -6.575349 -0.945200 -0.000000 -62.677600
0.939070 17.157759 0.467190 167.751607 -70.042118 -149.988630 -10.158056 3.730402 1.594098 -17.828398 25.909169 -25.121812 -3.576580 -1.366229 8.341548 2.213597 15.865546 -2.516695 1.729099 0.000000 -47.942699 10.144003 -3.029823 8.987118 -3.472326 7.103818 -30.686778 0.866780 0.255433 16.361057 -1.912531 -7.397174 -5.549503 -1.079100 -0.000001 -63.123600
0.913399 17.177418 0.460702 168.983576 -68.711348 -150.747484 -10.294200 3.849246 1.655010 -18.296991 26.852573 -25.727614 -3.691529 -1.395388 7.755913 2.162572 15.778694 -1.913542 1.901900 -0.000001 -48.416500 9.957803 -3.216655 9.434847 -3.655950 7.895804 -30.984620 0.947324 0.428476 14.755902 -1.712262 -6.772594 -4.429542 -1.203700 0.000000 -63.628200
0.891782 17.197017 0.455006 170.035795 -67.438558 -151.351679 -10.424136 3.962075 1.724453 -18.735165 27.652246 -26.286481 -3.792806 -1.421124 7.193953 2.121064 15.739371 -1.308036 2.080601 -0.000000 -48.877099 9.784227 -3.389782 9.833478 -3.835527 8.562884 -31.222658 1.046245 0.597971 13.125613 -1.490480 -6.083846 -3.251420 -1.301700 0.000000 -64.169400
0.873863 17.216164 0.450375 170.961053 -66.226134 -151.843569 -10.550832 4.067501 1.804898 -19.135254 28.311133 -26.821425 -3.880293 -1.442812 6.677015 2.090951 15.747276 -0.723541 2.260200 0.000000 -49.315400 9.619074 -3.548818 10.187101 -3.992350 9.113610 -31.419600 1.164443 0.764233 11.485413 -1.251359 -5.341576 -2.020010 -1.369500 0.000001 -64.741600
0.860050 17.234648 0.447165 171.786186 -65.080790 -152.260032 -10.673831 4.164096 1.889976 -19.487652 28.846957 -27.322869 -3.953529 -1.459552 6.213222 2.071831 15.797921 -0.170889 2.437600 0.000000 -49.726500 9.464209 -3.689987 10.487984 -4.110304 9.535980 -31.568358 1.302788 0.924813 9.860565 -0.996668 -4.540616 -0.752290 -1.399000 0.000000 -65.329499
0.850711 17.252327 0.445438 172.528181 -64.008968 -152.627133 -10.791097 4.250423 1.971176 -19.785993 29.286610 -27.785088 -4.013463 -1.470272 5.809885 2.061952 15.880085 0.341069 2.608700 0.000000 -50.110300 9.322296 -3.809630 10.730255 -4.173956 9.825512 -31.662146 1.460082 1.077331 8.276303 -0.730551 -3.683316 0.531337 -1.384000 -0.000000 -65.916900
0.844900 17.268894 0.445405 173.228386 -63.013025 -152.967683 -10.904484 4.327063 2.052057 -20.040803 29.650416 -28.256347 -4.063999 -1.473811 5.488347 2.060449 15.976458 0.792763 2.765900 0.000000 -50.466401 9.186947 -3.909634 10.924507 -4.161603 9.994337 -31.722281 1.637624 1.225600 6.725283 -0.458822 -2.789312 1.833359 -1.326800 0.000000 -66.500801
0.843892 17.284588 0.447174 173.876710 -62.106565 -153.300825 -11.007210 4.392390 2.113060 -20.244901 29.978059 -28.694802 -4.105810 -1.468578 5.239864 2.062825 16.071160 1.193649 2.907300 -0.000000 -50.801899 9.068528 -3.982395 11.053041 -4.068195 10.027692 -31.713392 1.830149 1.364263 5.243458 -0.186060 -1.856386 3.117105 -1.220300 0.000000 -67.054500
0.847462 17.299445 0.450851 174.487514 -61.298812 -153.636118 -11.096615 4.446468 2.149858 -20.407584 30.289534 -29.115816 -4.141888 -1.453648 5.068602 2.066883 16.149585 1.541493 3.029100 0.000000 -51.118699 8.967918 -4.026677 11.117658 -3.887517 9.933888 -31.637971 2.033626 1.494118 3.836044 0.080558 -0.906178 4.369572 -1.069000 -0.000000 -67.565401
0.855301 17.313362 0.456192 175.072502 -60.595599 -153.976049 -11.171029 4.490226 2.160911 -20.541823 30.604775 -29.552902 -4.176619 -1.426920 4.988730 2.069920 16.190024 1.830397 3.124700 -0.000000 -51.424100 8.883554 -4.042637 11.123819 -3.612220 9.724791 -31.501550 2.245354 1.618328 2.492433 0.334617 0.033886 5.587914 -0.882100 -0.000000 -68.031599
0.867934 17.326796 0.463409 175.618909 -60.010129 -154.320832 -11.226280 4.523508 2.136416 -20.649455 30.930380 -29.975677 -4.209950 -1.388479 4.982394 2.070278 16.192238 2.075212 3.197100 0.000000 -51.715800 8.822289 -4.026087 11.062507 -3.257335 9.400307 -31.288410 2.456944 1.734046 1.234783 0.570192 0.947775 6.743001 -0.665200 -0.000000 -68.432200
0.885125 17.339819 0.472351 176.121515 -59.549567 -154.661122 -11.261245 4.547253 2.076535 -20.738240 31.263781 -30.389054 -4.243340 -1.338131 5.046208 2.067122 16.152159 2.280371 3.246600 -0.000000 -51.992800 8.784844 -3.977503 10.936394 -2.834721 8.969857 -31.001319 2.662839 1.842225 0.062080 0.782321 1.810252 7.824379 -0.430700 -0.000000 -68.763400
0.906654 17.352618 0.482954 176.570541 -59.221434 -154.987505 -11.276490 4.562394 1.983003 -20.812191 31.594417 -30.787074 -4.276800 -1.276454 5.171434 2.060212 16.071331 2.453876 3.275600 -0.000000 -52.248900 8.771143 -3.898496 10.748617 -2.363784 8.444289 -30.642642 2.857129 1.942965 -1.023716 0.967158 2.597099 8.820708 -0.192000 0.000000 -69.021100
